<?xml version="1.0" encoding="UTF-8"?>
<svg id="Layer_2" xmlns="http://www.w3.org/2000/svg" viewBox="0 0 334.32 334.32">
  <defs>
    <style>
      .cls-1 {
        fill: #fff;
      }
    </style>
  </defs>
  <g id="Layer_2-2" data-name="Layer_2">
    <g>
      <rect class="cls-1" x="146.31" y="3.44" width="15" height="12.75" transform="translate(38.11 111.64) rotate(-45)"/>
      <rect class="cls-1" x="130.68" y="20.31" width="63.67" height="15" transform="translate(27.93 123.06) rotate(-45)"/>
      <rect class="cls-1" x="195.66" y="20.75" width="15" height="76.82" transform="translate(17.67 160.98) rotate(-45)"/>
      <rect class="cls-1" x="210.13" y="38.31" width="12.75" height="15" transform="translate(31.02 166.51) rotate(-45)"/>
      <rect class="cls-1" x="202.68" y="92.31" width="63.67" height="15" transform="translate(-1.89 195.06) rotate(-45)"/>
      <rect class="cls-1" x="267.66" y="92.75" width="15" height="76.82" transform="translate(-12.15 232.98) rotate(-45)"/>
      <rect class="cls-1" x="282.13" y="110.31" width="12.75" height="15" transform="translate(1.2 238.51) rotate(-45)"/>
      <rect class="cls-1" x="274.68" y="164.31" width="63.67" height="15" transform="translate(-31.72 267.06) rotate(-45)"/>
      <rect class="cls-1" x="317.01" y="174.13" width="15" height="12.75" transform="translate(-32.59 282.33) rotate(-45)"/>
      <rect class="cls-1" x="263.01" y="166.68" width="15" height="63.67" transform="translate(-61.14 249.42) rotate(-45)"/>
      <rect class="cls-1" x="200.75" y="159.66" width="76.82" height="15" transform="translate(-48.15 218.07) rotate(-45)"/>
      <rect class="cls-1" x="195.66" y="92.75" width="15" height="76.82" transform="translate(-33.24 182.07) rotate(-45)"/>
      <rect class="cls-1" x="128.75" y="87.66" width="76.82" height="15" transform="translate(-18.33 146.07) rotate(-45)"/>
      <rect class="cls-1" x="128.31" y="31.98" width="15" height="63.67" transform="translate(-5.34 114.72) rotate(-45)"/>
      <rect class="cls-1" x="74.31" y="75.44" width="15" height="12.75" transform="translate(-33.89 81.81) rotate(-45)"/>
      <rect class="cls-1" x="56.75" y="87.66" width="76.82" height="15" transform="translate(-39.42 95.16) rotate(-45)"/>
      <rect class="cls-1" x="123.66" y="92.75" width="15" height="76.82" transform="translate(-54.33 131.16) rotate(-45)"/>
      <rect class="cls-1" x="128.75" y="159.66" width="76.82" height="15" transform="translate(-69.24 167.16) rotate(-45)"/>
      <rect class="cls-1" x="195.66" y="164.75" width="15" height="76.82" transform="translate(-84.15 203.16) rotate(-45)"/>
      <rect class="cls-1" x="200.75" y="231.66" width="76.82" height="15" transform="translate(-99.06 239.16) rotate(-45)"/>
      <rect class="cls-1" x="245.01" y="246.13" width="15" height="12.75" transform="translate(-104.59 252.51) rotate(-45)"/>
      <rect class="cls-1" x="191.01" y="238.68" width="15" height="63.67" transform="translate(-133.14 219.6) rotate(-45)"/>
      <rect class="cls-1" x="128.75" y="231.66" width="76.82" height="15" transform="translate(-120.15 188.25) rotate(-45)"/>
      <rect class="cls-1" x="123.66" y="164.75" width="15" height="76.82" transform="translate(-105.24 152.25) rotate(-45)"/>
      <rect class="cls-1" x="56.75" y="159.66" width="76.82" height="15" transform="translate(-90.33 116.25) rotate(-45)"/>
      <rect class="cls-1" x="56.31" y="103.98" width="15" height="63.67" transform="translate(-77.34 84.9) rotate(-45)"/>
      <rect class="cls-1" x="2.31" y="147.44" width="15" height="12.75" transform="translate(-105.89 51.99) rotate(-45)"/>
      <rect class="cls-1" x="-4.02" y="155.01" width="63.67" height="15" transform="translate(-106.76 67.26) rotate(-45)"/>
      <rect class="cls-1" x="51.66" y="164.75" width="15" height="76.82" transform="translate(-126.33 101.34) rotate(-45)"/>
      <rect class="cls-1" x="39.44" y="209.01" width="12.75" height="15" transform="translate(-139.68 95.81) rotate(-45)"/>
      <rect class="cls-1" x="67.98" y="227.01" width="63.67" height="15" transform="translate(-136.59 139.26) rotate(-45)"/>
      <rect class="cls-1" x="105.66" y="244.2" width="15" height="25.91" transform="translate(-148.7 155.34) rotate(-45)"/>
      <rect class="cls-1" x="108.51" y="273.94" width="32.75" height="15" transform="translate(-162.43 170.74) rotate(-45)"/>
      <rect class="cls-1" x="141.66" y="280.21" width="15" height="25.91" transform="translate(-163.61 191.34) rotate(-45)"/>
      <rect class="cls-1" x="139.98" y="299.01" width="63.67" height="15" transform="translate(-166.41 211.26) rotate(-45)"/>
      <rect class="cls-1" x="173.01" y="318.13" width="15" height="12.75" transform="translate(-176.59 222.69) rotate(-45)"/>
    </g>
  </g>
</svg>